<?xml version="1.0" encoding="UTF-8"?>
<svg version="1.1" xmlns="http://www.w3.org/2000/svg" width="50" height="50">
<path d="M0 0 C5.56340585 3.36669624 9.53349183 8.25193794 11.5 14.4375 C12.30594257 22.2813829 12.59671889 30.02934467 7.5 36.4375 C3.04867668 41.14197914 -1.19064516 44.09747071 -7.76953125 44.7734375 C-16.04371997 44.8646634 -22.08428015 44.61560264 -28.2421875 38.7890625 C-34.17397269 32.28964236 -34.96296445 26.57688134 -34.80859375 17.88671875 C-34.22339005 11.3457711 -31.85547257 7.43687235 -27.0625 3.0625 C-19.84507341 -2.93248543 -8.52200107 -3.84066973 0 0 Z M-18.5 12.4375 C-17.84 13.7575 -17.18 15.0775 -16.5 16.4375 C-16.83 15.1175 -17.16 13.7975 -17.5 12.4375 C-17.83 12.4375 -18.16 12.4375 -18.5 12.4375 Z M-5.5 12.4375 C-4.5 14.4375 -4.5 14.4375 -4.5 14.4375 Z M-6.5 14.4375 C-5.5 16.4375 -5.5 16.4375 -5.5 16.4375 Z M-16.5 16.4375 C-15.5 19.4375 -15.5 19.4375 -15.5 19.4375 Z M-7.5 16.4375 C-6.5 19.4375 -6.5 19.4375 -6.5 19.4375 Z M-15.5 19.4375 C-14.5 22.4375 -14.5 22.4375 -14.5 22.4375 Z M-8.5 19.4375 C-7.5 22.4375 -7.5 22.4375 -7.5 22.4375 Z M-14.5 22.4375 C-13.5 24.4375 -13.5 24.4375 -13.5 24.4375 Z M-9.5 22.4375 C-8.5 25.4375 -8.5 25.4375 -8.5 25.4375 Z M-13.5 25.4375 C-12.5 27.4375 -12.5 27.4375 -12.5 27.4375 Z M-10.5 25.4375 C-9.5 27.4375 -9.5 27.4375 -9.5 27.4375 Z M-12.5 28.4375 C-12.5 29.0975 -12.5 29.7575 -12.5 30.4375 C-11.84 30.4375 -11.18 30.4375 -10.5 30.4375 C-10.5 29.7775 -10.5 29.1175 -10.5 28.4375 C-11.16 28.4375 -11.82 28.4375 -12.5 28.4375 Z " fill="#FA5151" transform="translate(36.5,3.5625)"/>
</svg>
